# xmcd CD database file
#
# Track frame offsets:
#	150
#	23800
#	42097
#	67315
#	93740
#	113772
#	129070
#	163865
#	172440
#	204157
#
# Disc length: 3027 seconds
#
# Revision: 0
# Processed by: cddbd v1.5.2PL0 Copyright (c) Steve Scherf et al.
# Submitted via: CDex 1.70beta2
#
DISCID=8a0bd10a
DTITLE=Paul Christianson - Timeless
DYEAR=1900
DGENRE=New Age
TTITLE0=Picture Of You
TTITLE1=Wedding Day
TTITLE2=Candles and Pearls
TTITLE3=Follow The River
TTITLE4=Autumn
TTITLE5=Song For A Friend
TTITLE6=Forever
TTITLE7=Nocturne
TTITLE8=Timeless
TTITLE9=Serenade
EXTD=
EXTT0=
EXTT1=
EXTT2=
EXTT3=
EXTT4=
EXTT5=
EXTT6=
EXTT7=
EXTT8=
EXTT9=
PLAYORDER=
